<svg width="20" height="20" viewBox="0 0 20 20" fill="none" xmlns="http://www.w3.org/2000/svg">
<path fill-rule="evenodd" clip-rule="evenodd" d="M9.90222 19.8223C15.3023 19.8223 19.68 15.4446 19.68 10.0445C19.68 4.64437 15.3023 0.26671 9.90222 0.26671C4.5021 0.26671 0.124437 4.64437 0.124437 10.0445C0.124437 15.4446 4.5021 19.8223 9.90222 19.8223ZM9.90222 1.60004C14.566 1.60004 18.3467 5.38075 18.3467 10.0445C18.3467 14.7082 14.566 18.4889 9.90222 18.4889C5.23848 18.4889 1.45777 14.7082 1.45777 10.0445C1.45777 7.80488 2.34745 5.657 3.93109 4.07336C5.51473 2.48972 7.66261 1.60004 9.90222 1.60004Z" fill="#A1A3AC"/>
<path fill-rule="evenodd" clip-rule="evenodd" d="M9.19554 12.7112C9.22493 12.7331 9.25616 12.7524 9.28888 12.769C9.32347 12.7963 9.36069 12.8201 9.39999 12.8401C9.44049 12.8531 9.48217 12.862 9.52443 12.8668C9.60523 12.8935 9.69252 12.8935 9.77332 12.8668C9.81558 12.862 9.85726 12.8531 9.89776 12.8401C9.93706 12.8201 9.97428 12.7963 10.0089 12.769C10.0416 12.7524 10.0728 12.7331 10.1022 12.7112L13.4355 9.15564C13.6816 8.88612 13.6652 8.46885 13.3988 8.21945C13.1324 7.97005 12.7149 7.98123 12.4622 8.24453L9.61332 11.2801L6.76443 8.24453C6.51173 7.98123 6.09429 7.97005 5.82786 8.21945C5.56142 8.46885 5.54504 8.88612 5.7911 9.15564L9.19554 12.7112Z" fill="#A1A3AC"/>
</svg>
