<svg width="12" height="11" viewBox="0 0 12 11" fill="none" xmlns="http://www.w3.org/2000/svg">
<path fill-rule="evenodd" clip-rule="evenodd" d="M11.7489 10.0347C12.0837 9.69993 12.0837 9.15722 11.7489 8.82248L8.06933 5.14286L11.7489 1.46323C12.0837 1.1285 12.0837 0.585786 11.7489 0.251051C11.4142 -0.0836838 10.8715 -0.0836838 10.5368 0.251051L6.25105 4.53677C5.91632 4.8715 5.91632 5.41421 6.25105 5.74895L10.5368 10.0347C10.8715 10.3694 11.4142 10.3694 11.7489 10.0347ZM5.74895 8.82248L2.06933 5.14286L5.74895 1.46323C6.08368 1.1285 6.08368 0.585786 5.74895 0.251051C5.41421 -0.0836838 4.8715 -0.0836838 4.53677 0.251051L0.251051 4.53677C-0.083684 4.8715 -0.083684 5.41421 0.251051 5.74895L4.53677 10.0347C4.8715 10.3694 5.41421 10.3694 5.74895 10.0347C6.08368 9.69993 6.08368 9.15722 5.74895 8.82248Z" fill="#A1A3AC"/>
</svg>
