<svg width="28" height="28" viewBox="0 0 28 28" fill="none" xmlns="http://www.w3.org/2000/svg">
<path fill-rule="evenodd" clip-rule="evenodd" d="M14 26.6667C20.9956 26.6667 26.6667 20.9956 26.6667 14C26.6667 7.00439 20.9956 1.33333 14 1.33333C7.00439 1.33333 1.33333 7.00439 1.33333 14C1.33333 20.9956 7.00439 26.6667 14 26.6667ZM14 28C21.732 28 28 21.732 28 14C28 6.26801 21.732 0 14 0C6.26801 0 0 6.26801 0 14C0 21.732 6.26801 28 14 28Z" fill="white"/>
<path fill-rule="evenodd" clip-rule="evenodd" d="M7.31295 23.52V20.5536C7.31295 18.5308 8.96475 16.8909 11.0024 16.8909H16.9977C19.0353 16.8909 20.6871 18.5308 20.6871 20.5536V23.52C23.7523 21.4128 25.76 17.8966 25.76 13.9149C25.76 7.46704 20.4949 2.23999 14 2.23999C7.50514 2.23999 2.24001 7.46704 2.24001 13.9149C2.24001 17.8966 4.24773 21.4128 7.31295 23.52ZM18.3812 10.4811C18.3812 12.7569 16.5229 14.6017 14.2306 14.6017C11.9383 14.6017 10.08 12.7569 10.08 10.4811C10.08 8.2054 11.9383 6.36056 14.2306 6.36056C16.5229 6.36056 18.3812 8.2054 18.3812 10.4811Z" fill="white"/>
</svg>
