<svg width="12" height="11" viewBox="0 0 12 11" fill="none" xmlns="http://www.w3.org/2000/svg">
<path fill-rule="evenodd" clip-rule="evenodd" d="M7 2C7 2.82843 7.67157 3.5 8.5 3.5C8.89782 3.5 9.27936 3.34196 9.56066 3.06066C9.84196 2.77936 10 2.39782 10 2C10 1.17157 9.32843 0.5 8.5 0.5C7.67157 0.5 7 1.17157 7 2ZM8 2C8 1.72386 8.22386 1.5 8.5 1.5C8.77614 1.5 9 1.72386 9 2C9 2.27614 8.77614 2.5 8.5 2.5C8.22386 2.5 8 2.27614 8 2Z" fill="#A1A3AC"/>
<path d="M7.5 2.5H1C0.723858 2.5 0.5 2.27614 0.5 2C0.5 1.72386 0.723858 1.5 1 1.5H7.5C7.77614 1.5 8 1.72386 8 2C8 2.27614 7.77614 2.5 7.5 2.5Z" fill="#A1A3AC"/>
<path d="M11 2.5H9.5C9.22386 2.5 9 2.27614 9 2C9 1.72386 9.22386 1.5 9.5 1.5H11C11.2761 1.5 11.5 1.72386 11.5 2C11.5 2.27614 11.2761 2.5 11 2.5Z" fill="#A1A3AC"/>
<path fill-rule="evenodd" clip-rule="evenodd" d="M4.5 5.5C4.5 6.32843 5.17157 7 6 7C6.39782 7 6.77936 6.84196 7.06066 6.56066C7.34196 6.27936 7.5 5.89782 7.5 5.5C7.5 4.67157 6.82843 4 6 4C5.17157 4 4.5 4.67157 4.5 5.5ZM5.5 5.5C5.5 5.22386 5.72386 5 6 5C6.27614 5 6.5 5.22386 6.5 5.5C6.5 5.77614 6.27614 6 6 6C5.72386 6 5.5 5.77614 5.5 5.5Z" fill="#A1A3AC"/>
<path d="M5 6H1C0.723858 6 0.5 5.77614 0.5 5.5C0.5 5.22386 0.723858 5 1 5H5C5.27614 5 5.5 5.22386 5.5 5.5C5.5 5.77614 5.27614 6 5 6Z" fill="#A1A3AC"/>
<path d="M11 6H7C6.72386 6 6.5 5.77614 6.5 5.5C6.5 5.22386 6.72386 5 7 5H11C11.2761 5 11.5 5.22386 11.5 5.5C11.5 5.77614 11.2761 6 11 6Z" fill="#A1A3AC"/>
<path fill-rule="evenodd" clip-rule="evenodd" d="M2 9C2 9.82843 2.67157 10.5 3.5 10.5C4.32843 10.5 5 9.82843 5 9C5 8.17157 4.32843 7.5 3.5 7.5C2.67157 7.5 2 8.17157 2 9ZM3 9C3 8.72386 3.22386 8.5 3.5 8.5C3.77614 8.5 4 8.72386 4 9C4 9.27614 3.77614 9.5 3.5 9.5C3.22386 9.5 3 9.27614 3 9Z" fill="#A1A3AC"/>
<path d="M11 9.5H4.5C4.22386 9.5 4 9.27614 4 9C4 8.72386 4.22386 8.5 4.5 8.5H11C11.2761 8.5 11.5 8.72386 11.5 9C11.5 9.27614 11.2761 9.5 11 9.5Z" fill="#A1A3AC"/>
<path d="M2.5 9.5H1C0.723858 9.5 0.5 9.27614 0.5 9C0.5 8.72386 0.723858 8.5 1 8.5H2.5C2.77614 8.5 3 8.72386 3 9C3 9.27614 2.77614 9.5 2.5 9.5Z" fill="#A1A3AC"/>
</svg>
