<svg width="12" height="11" viewBox="0 0 12 11" fill="none" xmlns="http://www.w3.org/2000/svg">
<path fill-rule="evenodd" clip-rule="evenodd" d="M0.251051 10.0347C-0.0836838 9.69993 -0.0836838 9.15722 0.251051 8.82248L3.93067 5.14286L0.251051 1.46323C-0.0836838 1.1285 -0.0836838 0.585786 0.251051 0.251051C0.585786 -0.0836838 1.1285 -0.0836838 1.46323 0.251051L5.74895 4.53677C6.08368 4.8715 6.08368 5.41421 5.74895 5.74895L1.46323 10.0347C1.1285 10.3694 0.585786 10.3694 0.251051 10.0347ZM6.25105 8.82248L9.93067 5.14286L6.25105 1.46323C5.91632 1.1285 5.91632 0.585786 6.25105 0.251051C6.58579 -0.0836838 7.1285 -0.0836838 7.46323 0.251051L11.7489 4.53677C12.0837 4.8715 12.0837 5.41421 11.7489 5.74895L7.46323 10.0347C7.1285 10.3694 6.58579 10.3694 6.25105 10.0347C5.91632 9.69993 5.91632 9.15722 6.25105 8.82248Z" fill="#A1A3AC"/>
</svg>
