<svg width="111" height="31" viewBox="0 0 111 31" fill="none" xmlns="http://www.w3.org/2000/svg">
<path d="M12.4968 0C4.78746 0 0 5.93862 0 15.5C0 25.0614 4.78746 31 12.4968 31C20.2062 31 24.9937 25.0614 24.9937 15.5C24.9937 5.93862 20.2231 0 12.4968 0ZM24.1438 15.5C24.1438 24.5366 19.6814 30.1502 12.4968 30.1502C5.31225 30.1502 0.849825 24.5366 0.849825 15.5C0.849825 6.46341 5.3258 0.849825 12.4968 0.849825C19.6679 0.849825 24.1438 6.4668 24.1438 15.5Z" fill="white"/>
<path d="M8.28495 7.91245C7.72969 7.19129 8.04795 6.62586 8.41023 6.35162C8.63165 6.19876 8.90468 6.14001 9.16938 6.18825C9.43408 6.2365 9.66882 6.38779 9.82209 6.60893L11.041 8.13253H11.4947V6.49382C11.4947 6.27921 11.4094 6.07338 11.2576 5.92163C11.1059 5.76988 10.9001 5.68462 10.6855 5.68462H8.3933C8.04912 5.67593 7.71047 5.77238 7.42252 5.96112C7.13458 6.14986 6.91102 6.42191 6.78168 6.74098C6.66489 7.04689 6.6347 7.37908 6.69443 7.70104C6.75416 8.02299 6.9015 8.32224 7.12026 8.5659L10.1911 12.4629C10.7464 13.1841 10.4281 13.7495 10.0625 14.0237C9.84131 14.1755 9.56907 14.2337 9.30519 14.1855C9.04131 14.1372 8.80722 13.9866 8.654 13.7664C8.31543 13.3432 7.26923 12.0532 7.26923 12.0532H6.90695V13.8849C6.90785 14.0999 6.99385 14.3057 7.14615 14.4573C7.29844 14.609 7.50461 14.6941 7.71953 14.6941H10.0896C10.4347 14.7033 10.7744 14.6066 11.0631 14.4172C11.3517 14.2278 11.5756 13.9546 11.7046 13.6344C11.8214 13.3285 11.8515 12.9963 11.7918 12.6743C11.7321 12.3524 11.5847 12.0531 11.366 11.8095L8.28495 7.91245Z" fill="white"/>
<path d="M16.6004 5.68471H14.3082C14.0936 5.68471 13.8878 5.76996 13.7361 5.92172C13.5843 6.07347 13.499 6.2793 13.499 6.49391V8.13261H13.9527L15.1716 6.60902C15.3249 6.38788 15.5596 6.23659 15.8243 6.18834C16.089 6.1401 16.362 6.19885 16.5835 6.3517C16.9457 6.62595 17.2606 7.19137 16.7087 7.91254L13.6379 11.8095C13.4181 12.0526 13.2701 12.3519 13.2103 12.6741C13.1505 12.9963 13.1813 13.3287 13.2993 13.6345C13.4281 13.9542 13.6514 14.2269 13.9394 14.4163C14.2274 14.6057 14.5663 14.7026 14.9109 14.6942H17.2809C17.4955 14.6942 17.7014 14.609 17.8531 14.4572C18.0049 14.3055 18.0901 14.0996 18.0901 13.885V12.0533H17.7245C17.7245 12.0533 16.7087 13.3433 16.3397 13.7665C16.1864 13.9877 15.9517 14.139 15.687 14.1872C15.4223 14.2354 15.1493 14.1767 14.9278 14.0238C14.5622 13.7496 14.2507 13.1842 14.8026 12.463L17.8768 8.56599C18.0966 8.32292 18.2446 8.02364 18.3044 7.70144C18.3642 7.37925 18.3334 7.04679 18.2154 6.74107C18.0859 6.42145 17.8618 6.14901 17.5732 5.96023C17.2845 5.77145 16.9452 5.67532 16.6004 5.68471Z" fill="white"/>
<path d="M14.806 18.5371C14.2473 17.8159 14.5656 17.2505 14.9313 16.9762C15.1527 16.8234 15.4257 16.7646 15.6904 16.8129C15.9551 16.8611 16.1899 17.0124 16.3431 17.2335C16.6817 17.6568 17.7279 18.9501 17.7279 18.9501H18.0936V17.1218C18.094 17.0153 18.0734 16.9097 18.0329 16.8111C17.9925 16.7125 17.9329 16.6229 17.8577 16.5474C17.7826 16.4719 17.6932 16.412 17.5948 16.3711C17.4964 16.3303 17.3909 16.3092 17.2844 16.3092H14.9143C14.5698 16.3008 14.2308 16.3977 13.9428 16.5871C13.6548 16.7765 13.4315 17.0493 13.3027 17.369C13.1848 17.6747 13.154 18.0072 13.2137 18.3293C13.2735 18.6515 13.4215 18.9508 13.6413 19.1939L16.7122 23.0909C17.2674 23.8121 16.9492 24.3775 16.5869 24.6517C16.3655 24.8046 16.0924 24.8633 15.8277 24.8151C15.563 24.7669 15.3283 24.6156 15.175 24.3944L13.9562 22.8708H13.4991V24.5095C13.4991 24.7241 13.5843 24.93 13.7361 25.0817C13.8878 25.2335 14.0937 25.3187 14.3083 25.3187H16.6004C16.9446 25.3274 17.2833 25.231 17.5712 25.0422C17.8592 24.8535 18.0827 24.5814 18.2121 24.2624C18.33 23.9566 18.3608 23.6242 18.301 23.302C18.2413 22.9798 18.0932 22.6805 17.8735 22.4374L14.806 18.5371Z" fill="white"/>
<path d="M11.3558 19.1904C11.5745 18.9468 11.7219 18.6475 11.7816 18.3256C11.8413 18.0036 11.8111 17.6714 11.6944 17.3655C11.5653 17.0453 11.3415 16.7721 11.0528 16.5827C10.7642 16.3933 10.4245 16.2966 10.0793 16.3058H7.70932C7.49381 16.3058 7.28712 16.3914 7.13473 16.5438C6.98235 16.6962 6.89674 16.9028 6.89674 17.1183V18.9467H7.26578C7.26578 18.9467 8.28151 17.6533 8.65056 17.2301C8.72568 17.1193 8.82196 17.0245 8.93386 16.951C9.04575 16.8776 9.17106 16.827 9.30258 16.8021C9.43409 16.7773 9.56923 16.7787 9.70021 16.8062C9.83119 16.8337 9.95544 16.8869 10.0658 16.9626C10.4315 17.2369 10.743 17.8023 10.1945 18.5234L7.12697 22.434C6.90822 22.6777 6.76088 22.9769 6.70115 23.2989C6.64141 23.6208 6.6716 23.953 6.78839 24.2589C6.91773 24.578 7.14129 24.85 7.42924 25.0388C7.71718 25.2275 8.05583 25.324 8.40001 25.3153H10.6922C10.9068 25.3153 11.1126 25.23 11.2644 25.0783C11.4161 24.9265 11.5014 24.7207 11.5014 24.5061V22.8674H11.0409L9.82203 24.391C9.66877 24.6121 9.43402 24.7634 9.16932 24.8116C8.90462 24.8599 8.6316 24.8011 8.41017 24.6483C8.04789 24.374 7.73302 23.8086 8.2849 23.0874L11.3558 19.1904Z" fill="white"/>
<path d="M38.5887 22.1226C37.5729 21.7502 37.1328 21.2288 37.3224 20.6092C37.4307 20.2503 37.8336 19.8541 38.6225 19.932C39.469 20.0065 39.9057 20.7649 40.0581 21.0866L40.0852 21.1441L40.4813 20.4026V20.3857C40.2458 20.1348 39.9615 19.9346 39.646 19.7972C39.3305 19.6598 38.9903 19.5882 38.6462 19.5867H38.5785C37.5289 19.5867 36.7603 20.1826 36.696 21.0527C36.6385 21.8653 37.2174 22.4544 38.5176 22.9047C39.5333 23.2433 39.9768 23.6428 39.9193 24.1541C39.9068 24.2685 39.8702 24.379 39.8118 24.4782C39.7535 24.5775 39.6747 24.6632 39.5807 24.7296C39.2483 24.948 38.8434 25.027 38.4532 24.9497C38.126 24.9062 37.8187 24.7679 37.569 24.5519C37.3194 24.336 37.1383 24.0518 37.0481 23.7342L37.0312 23.6699L36.52 24.3098V24.3301C36.8992 25.0073 37.8167 25.312 38.5108 25.3458H38.5853C39.1693 25.3635 39.7365 25.1493 40.163 24.75C40.2878 24.6271 40.3847 24.4789 40.4472 24.3153C40.5097 24.1518 40.5364 23.9767 40.5253 23.8019C40.4982 23.1011 39.9362 22.6135 38.5887 22.1226Z" fill="white"/>
<path d="M76.7225 19.7085L76.7496 19.6713H75.656L75.6865 19.7221C75.7647 19.8465 75.8037 19.9916 75.7982 20.1385V24.7499C75.8041 24.8979 75.7652 25.0443 75.6865 25.1697L75.656 25.2171H76.7496L76.7191 25.1697C76.6458 25.0556 76.607 24.9228 76.6074 24.7871V20.0911C76.6074 19.955 76.6475 19.822 76.7225 19.7085Z" fill="white"/>
<path d="M47.3747 19.6713H43.6064L43.2678 20.2976C43.2678 20.2976 43.4879 20.0674 44.3411 20.0674H45.0758V24.7499C45.0607 24.9142 45.0111 25.0734 44.9302 25.2171H46.0238C45.944 25.0805 45.8954 24.9279 45.8816 24.7702V20.0302H46.6163C47.4763 20.0302 47.693 20.2672 47.693 20.2672L47.3747 19.6713Z" fill="white"/>
<path d="M85.6202 23.3719L85.5931 23.4464C85.4702 23.8637 85.2195 24.2318 84.8763 24.4991C84.5331 24.7663 84.1148 24.9192 83.6802 24.9362C82.4918 24.9362 81.5234 23.8053 81.5234 22.4138C81.5234 21.0222 82.4918 19.8948 83.6802 19.8948C84.1149 19.9112 84.5335 20.0639 84.8768 20.3313C85.22 20.5986 85.4706 20.967 85.5931 21.3845L85.6236 21.4691L85.9385 20.5889C85.6474 20.2701 85.2919 20.0168 84.8956 19.8458C84.4993 19.6748 84.0711 19.5899 83.6395 19.5968C81.9466 19.5968 80.6431 20.8292 80.6431 22.4612C80.6431 24.0931 81.9331 25.3289 83.6395 25.3289C84.0869 25.3163 84.5266 25.2105 84.9307 25.0181C85.3347 24.8257 85.6941 24.551 85.9859 24.2116L85.6202 23.3719Z" fill="white"/>
<path d="M52.8156 19.6713H51.9421L51.9624 19.7187C52.1012 20.0369 52.0911 20.1622 52.0166 20.3349L49.8666 25.2171H50.3406L51.055 23.5818H53.6722L54.39 25.2171H55.2635L52.8258 19.6713H52.8156ZM53.4928 23.2026H51.2209L52.3721 20.599L53.4928 23.2026Z" fill="white"/>
<path d="M61.0397 22.4984H61.3783C61.743 22.4806 62.0868 22.3231 62.3387 22.0587C62.5905 21.7943 62.7309 21.4432 62.7309 21.078C62.7309 20.7129 62.5905 20.3618 62.3387 20.0974C62.0868 19.8329 61.743 19.6755 61.3783 19.6577H58.5918L58.6223 19.7085C58.7019 19.8325 58.742 19.9777 58.7374 20.1249V24.7499C58.7431 24.8973 58.7029 25.0428 58.6223 25.1663L58.5918 25.2171H59.6854L59.6549 25.1663C59.5808 25.0539 59.5419 24.9218 59.5432 24.7871V20.0098H60.928C61.2135 20.0098 61.4874 20.1233 61.6893 20.3252C61.8912 20.5271 62.0046 20.801 62.0046 21.0865C62.0046 21.3721 61.8912 21.6459 61.6893 21.8478C61.4874 22.0497 61.2135 22.1632 60.928 22.1632H59.8208L59.8479 22.2106L60.0206 22.4916L60.1594 22.7184C60.6165 23.3956 61.49 24.5772 62.2281 25.0174C62.4881 25.1595 62.7783 25.2373 63.0745 25.2442C63.1331 25.2495 63.192 25.2495 63.2506 25.2442H63.3217L63.2641 25.2002C62.5091 24.5637 61.4799 23.1383 61.0397 22.4984Z" fill="white"/>
<path d="M71.3087 24.6246V19.6713H70.8719V24.0728L67.3067 19.6713H66.423L66.528 19.7322C66.6082 19.7912 66.6718 19.8698 66.7127 19.9606C66.7536 20.0513 66.7705 20.1511 66.7616 20.2502V25.2171H67.2018V20.8157L70.767 25.2171H71.6134L71.5457 25.1596C71.4013 25.018 71.3165 24.8267 71.3087 24.6246Z" fill="white"/>
<path d="M72.1416 11.2239H62.3432V11.6302H72.1416V11.2239Z" fill="white"/>
<path d="M72.3616 9.62573H62.0994V10.032H72.3616V9.62573Z" fill="white"/>
<path d="M71.2477 8.07849H63.2133V8.48478H71.2477V8.07849Z" fill="white"/>
<path d="M71.9486 6.5481H62.5192V6.95439H71.9486V6.5481Z" fill="white"/>
<path d="M67.696 6.68689H66.7683V9.85596H67.696V6.68689Z" fill="white"/>
<path d="M69.1485 5.18371C68.9825 5.73308 68.6573 6.22087 68.2141 6.58541C68.3505 6.5927 68.4873 6.5927 68.6237 6.58541C69.0673 6.40597 69.9205 5.85747 70.1846 5.17017L69.1485 5.18371Z" fill="white"/>
<path d="M65.2888 5.18371C65.4535 5.73283 65.7776 6.22068 66.2199 6.58541C66.0834 6.59276 65.9467 6.59276 65.8102 6.58541C65.3701 6.40597 64.5169 5.85747 64.2494 5.17017L65.2888 5.18371Z" fill="white"/>
<path d="M110.384 5.44092H102.166V5.83367H110.384V5.44092Z" fill="white"/>
<path d="M110.384 14.2913H102.166V14.684H110.384V14.2913Z" fill="white"/>
<path d="M109.585 6.87988H102.816V7.27263H109.585V6.87988Z" fill="white"/>
<path d="M108.664 7.79407H103.988V8.18682H108.664V7.79407Z" fill="white"/>
<path d="M108.664 8.6676H103.988V9.06035H108.664V8.6676Z" fill="white"/>
<path d="M108.664 9.56812H103.988V9.96086H108.664V9.56812Z" fill="white"/>
<path d="M109.571 11.637H102.871V12.0297H109.571V11.637Z" fill="white"/>
<path d="M102.491 5.44092H101.689V14.684H102.491V5.44092Z" fill="white"/>
<path d="M110.732 5.44092H109.93V14.684H110.732V5.44092Z" fill="white"/>
<path d="M106.507 6.13501H105.779V10.7938H106.507V6.13501Z" fill="white"/>
<path d="M104.313 7.79749H103.636V9.96776H104.313V7.79749Z" fill="white"/>
<path d="M108.752 7.79749H108.075V9.96776H108.752V7.79749Z" fill="white"/>
<path d="M107.001 12.9505L107.679 13.0623V11.1121H107.001V12.9505Z" fill="white"/>
<path d="M107.133 10.0726C107.736 10.3703 108.276 10.7806 108.725 11.2813L109.209 10.787C109.209 10.787 108.759 10.3232 107.323 9.86609L107.133 10.0726Z" fill="white"/>
<path d="M102.857 10.6043C102.952 10.8102 103.06 11.0103 103.179 11.2036C103.179 11.2036 106.355 11.1663 108.129 10.6111L107.912 10.4045C106.232 10.5665 104.545 10.6332 102.857 10.6043Z" fill="white"/>
<path d="M107.286 12.7407C107.286 12.7407 107.001 12.8017 107.001 12.8829C107.001 13.1876 107.055 13.3806 106.571 13.3806C106.246 13.3853 105.922 13.3408 105.61 13.2486L105.515 13.4687C105.515 13.4687 106.598 13.9731 107.147 13.9528C107.695 13.9325 107.672 13.2757 107.678 13.015C107.685 12.7543 107.286 12.7407 107.286 12.7407Z" fill="white"/>
<path d="M103.748 12.2227L103.507 12.3886C103.938 12.7459 104.334 13.1439 104.689 13.577L105.281 13.0894C104.79 12.766 104.278 12.4764 103.748 12.2227Z" fill="white"/>
<path d="M72.0908 14.657C71.4562 14.5665 70.8308 14.4204 70.2219 14.2202C69.5933 14.0205 68.9994 13.7247 68.4613 13.3433C68.0341 13.0445 67.6715 12.6626 67.3952 12.2205C67.1189 11.7784 66.9345 11.2851 66.853 10.7702C66.8238 10.5987 66.8046 10.4258 66.7955 10.2521L66.8835 9.77136H67.6081L67.6961 10.2386C67.6961 10.3774 67.6961 10.5196 67.6961 10.6618C67.718 10.9401 67.776 11.2144 67.8688 11.4778C68.0699 12.0143 68.4057 12.49 68.8439 12.8592C69.3051 13.2461 69.8237 13.5591 70.381 13.7869C70.9522 14.025 71.5422 14.2153 72.145 14.3557L72.0908 14.657Z" fill="white"/>
<path d="M62.3229 14.3557C62.9258 14.2158 63.5158 14.0255 64.0869 13.7869C64.6448 13.5583 65.1644 13.2455 65.6274 12.8592C66.0619 12.4888 66.3941 12.0132 66.5923 11.4778C66.6833 11.214 66.7413 10.9399 66.765 10.6618C66.765 10.5196 66.765 10.3808 66.765 10.2386L66.8632 9.77136H67.608L67.6893 10.2521C67.6813 10.4257 67.6632 10.5987 67.6351 10.7702C67.5783 11.1202 67.477 11.4615 67.3338 11.7859C67.0399 12.4138 66.5885 12.955 66.0235 13.3569C65.487 13.7388 64.8941 14.0347 64.2663 14.2338C63.6572 14.4336 63.0319 14.5797 62.3974 14.6706L62.3229 14.3557Z" fill="white"/>
<path d="M94.5181 11.9653C95.1614 13.0352 96.6816 13.9562 98.3067 14.4132L98.2289 14.6672C96.3498 14.2846 94.4368 13.3129 93.7529 12.2193L93.5497 11.9755C93.5497 11.9755 93.7563 11.6843 93.8308 11.6945C93.9053 11.7046 94.1998 11.7859 94.1998 11.7859L94.5181 11.9653Z" fill="white"/>
<path d="M92.2022 11.9653C91.5589 13.0352 90.0387 13.9562 88.4136 14.4132L88.4914 14.6672C90.3705 14.2846 92.2835 13.3129 92.9674 12.2193L93.1706 11.9755C93.1706 11.9755 92.964 11.6843 92.8895 11.6945C92.8151 11.7046 92.5205 11.7859 92.5205 11.7859L92.2022 11.9653Z" fill="white"/>
<path d="M98.4625 11.5828H88.4136V11.9924H98.4625V11.5828Z" fill="white"/>
<path d="M90.6751 10.5704H89.8998V6.39917L90.6751 6.59893V10.5704Z" fill="white"/>
<path d="M94.1387 10.4586H93.3634V6.28735L94.1387 6.48711V10.4586Z" fill="white"/>
<path d="M97.7956 6.26367H90.2148V6.66319H97.7956V6.26367Z" fill="white"/>
<path d="M97.7956 10.1608H90.2148V10.5704H97.7956V10.1608Z" fill="white"/>
<path d="M97.4468 8.85376H90.2148V9.25328H97.4468V8.85376Z" fill="white"/>
<path d="M97.4468 7.54688H90.2148V7.95317H97.4468V7.54688Z" fill="white"/>
<path d="M90.6109 4.97375C90.0451 6.30355 89.1517 7.46836 88.014 8.35951L88.1698 8.52542C89.6211 7.67101 90.8207 6.44805 91.647 4.98053L90.6109 4.97375Z" fill="white"/>
<path d="M93.7529 10.8547H92.9641V14.8499H93.7529V10.8547Z" fill="white"/>
<path d="M93.8951 4.94323C93.7297 5.49201 93.4058 5.97966 92.9641 6.34493C93.1005 6.35228 93.2373 6.35228 93.3737 6.34493C93.8173 6.1621 94.6671 5.617 94.9346 4.92969L93.8951 4.94323Z" fill="white"/>
<path d="M50.3271 5.4646H49.7143V8.87067H50.3271V5.4646Z" fill="white"/>
<path d="M54.1158 5.25476H49.7177V5.61027H54.1158V5.25476Z" fill="white"/>
<path d="M59.1233 10.0625H49.1116V10.4756H59.1233V10.0625Z" fill="white"/>
<path d="M58.0907 14.1559H50.1409V14.5554H58.0907V14.1559Z" fill="white"/>
<path d="M58.0907 11.2103H50.1409V11.6098H58.0907V11.2103Z" fill="white"/>
<path d="M56.6009 13.235H51.5291V13.6514H56.6009V13.235Z" fill="white"/>
<path d="M57.5828 5.25476H54.8437V5.61027H57.5828V5.25476Z" fill="white"/>
<path d="M58.1888 7.21509H54.4645V7.57059H58.1888V7.21509Z" fill="white"/>
<path d="M53.6519 6.76822H51.0178L51.1938 6.41272H53.6519V6.76822Z" fill="white"/>
<path d="M53.9194 7.40466H50.7368V7.76017H53.9194V7.40466Z" fill="white"/>
<path d="M50.4557 9.57496V9.16528H54.0006L53.7264 9.57496H50.4557Z" fill="white"/>
<path d="M49.7143 8.81317C49.7065 8.91347 49.7201 9.01428 49.7543 9.10889C49.7885 9.2035 49.8425 9.28972 49.9127 9.36182C49.9829 9.43391 50.0676 9.49021 50.1613 9.52696C50.2549 9.56372 50.3553 9.58008 50.4558 9.57496L50.7097 9.17206C50.7097 9.17206 50.3407 9.17544 50.3407 8.87073C50.3402 8.79372 50.3112 8.71961 50.2593 8.66271C50.2074 8.60581 50.1363 8.57015 50.0597 8.56262L49.7515 8.75561L49.7143 8.81317Z" fill="white"/>
<path d="M51.3563 5.78967C51.1805 6.30937 50.8914 6.78351 50.5099 7.17783L50.6893 7.29295C51.2008 6.96128 51.6081 6.4918 51.8642 5.93865L51.3563 5.78967Z" fill="white"/>
<path d="M52.0335 6.65983C52.0335 6.6903 51.9861 6.7377 51.9861 6.7377C51.9861 6.7377 52.1825 8.12586 50.6318 8.73868L50.7198 8.88088C50.7198 8.88088 52.0403 8.62018 52.4533 7.71618C52.5871 7.38677 52.6461 7.03174 52.626 6.67676C52.521 6.67676 52.5109 6.61243 52.5109 6.61243L52.0335 6.65983Z" fill="white"/>
<path d="M52.6801 7.56726C52.7895 7.83969 52.9566 8.08518 53.1699 8.28683C53.3833 8.48848 53.6378 8.6415 53.9159 8.73535L53.8279 8.87755C53.8279 8.87755 52.5684 8.62023 52.1553 7.71285C52.1553 7.71285 52.1316 7.65529 52.1046 7.57065L52.6801 7.56726Z" fill="white"/>
<path d="M54.9994 5.49508L54.8437 5.41382C54.8437 5.41382 54.9385 6.5345 54.0006 6.97804L54.0988 7.14733C54.0988 7.14733 55.2398 6.90355 55.4768 5.9894C55.5108 5.82124 55.5233 5.64945 55.514 5.47815L54.9994 5.49508Z" fill="white"/>
<path d="M57.3594 7.42505C57.3594 7.42505 56.9599 8.86738 54.1666 9.58855L54.2513 9.77138C54.2513 9.77138 56.8346 9.61225 58.1889 7.57064L57.3594 7.42505Z" fill="white"/>
<path d="M50.9162 11.2239H50.1375V14.5521H50.9162V11.2239Z" fill="white"/>
<path d="M58.0939 11.2239H57.3152V14.5521H58.0939V11.2239Z" fill="white"/>
<path d="M52.9308 10.3266C52.9308 10.3266 53.0493 11.6809 52.3214 12.1752C51.982 12.4144 51.5989 12.5847 51.1939 12.6763L51.3497 12.9539C51.9093 12.8715 52.4436 12.6656 52.9139 12.3513C53.1187 12.2179 53.2889 12.0379 53.4107 11.826C53.5326 11.6142 53.6025 11.3765 53.6147 11.1324C53.6533 10.8632 53.6748 10.5918 53.6791 10.3198L52.9308 10.3266Z" fill="white"/>
<path d="M54.6101 10.4011V11.9958C54.6101 11.9958 54.5424 12.6357 55.3584 12.6357H57.4508V12.1279H55.4735C55.4735 12.1279 55.2602 12.1482 55.2534 11.8164C55.2467 11.4846 55.2534 10.4147 55.2534 10.4147L54.6101 10.4011Z" fill="white"/>
<path d="M58.6493 6.97466H57.7893C57.2646 6.97466 57.0106 6.78844 57.0106 6.29751V5.24792H57.6336V6.29751C57.6336 6.48034 57.6336 6.58868 57.9112 6.58868H58.8051L58.6493 6.97466Z" fill="white"/>
<path d="M56.435 8.75224C56.126 8.57121 55.8396 8.35413 55.5818 8.10556C55.3462 7.89076 55.176 7.61378 55.0909 7.30652L54.4543 7.46903V7.57061C54.6238 7.94511 54.879 8.2745 55.1992 8.53216C55.5101 8.7819 55.8514 8.99123 56.2149 9.15514C56.9295 9.47459 57.6888 9.68241 58.4665 9.77135L58.5037 9.55128C57.7776 9.39139 57.0801 9.12196 56.435 8.75224Z" fill="white"/>
<path d="M77.0813 9.32446H76.2789V5.70847L77.0813 5.53918V9.32446Z" fill="white"/>
<path d="M80.633 13.665L79.8137 13.9799V11.6335L80.633 11.6369V13.665Z" fill="white"/>
<path d="M84.0933 5.44775H83.2875V9.32445H84.0933V5.44775Z" fill="white"/>
<path d="M78.29 4.84167C77.6324 5.29365 76.8834 5.59535 76.0961 5.72536L76.2789 5.94882C76.2789 5.94882 78.1038 5.81339 78.9333 5.37662L78.29 4.84167Z" fill="white"/>
<path d="M84.6994 9.1991H75.8287V9.602H84.6994V9.1991Z" fill="white"/>
<path d="M82.6001 10.2589H76.9527V10.6347H82.6001V10.2589Z" fill="white"/>
<path d="M85.1766 12.2531H75.1887V12.6695H85.1766V12.2531Z" fill="white"/>
<path d="M84.0628 5.44775H81.7808V5.80326H84.0628V5.44775Z" fill="white"/>
<path d="M84.0628 6.68018H81.7808V7.03568H84.0628V6.68018Z" fill="white"/>
<path d="M84.0628 7.92615H81.7808V8.28165H84.0628V7.92615Z" fill="white"/>
<path d="M76.1063 9.1991H75.3648V10.6922H76.1063V9.1991Z" fill="white"/>
<path d="M84.9871 9.1991H84.2456V10.6922H84.9871V9.1991Z" fill="white"/>
<path d="M82.1261 10.2589C81.6041 10.8241 80.992 11.2989 80.3148 11.664L80.5044 11.9349C80.5044 11.9349 82.1972 11.295 82.9286 10.6923V10.2589H82.1261Z" fill="white"/>
<path d="M80.3656 13.7022C80.3656 13.7022 79.9017 13.6345 79.8137 13.7395C79.8137 14.1762 79.922 14.5046 78.3883 14.2236L77.9955 14.1559L77.9244 14.3557C77.9244 14.3557 78.754 14.6367 79.1433 14.7383C79.4399 14.8426 79.759 14.866 80.0676 14.806C80.369 14.7247 80.6534 14.5859 80.633 13.665C80.6195 12.8422 80.3656 13.7022 80.3656 13.7022Z" fill="white"/>
<path d="M78.6016 6.68018H76.3196V7.03568H78.6016V6.68018Z" fill="white"/>
<path d="M78.6016 7.92615H76.3196V8.28165H78.6016V7.92615Z" fill="white"/>
<path d="M80.8124 7.01196C80.2572 7.68996 79.5853 8.26327 78.8284 8.70484L78.9841 8.86736C79.8823 8.50233 80.7105 7.98456 81.432 7.337L80.8124 7.01196Z" fill="white"/>
<path d="M79.0925 7.48262C79.0925 7.48262 80.5078 8.2004 80.9953 8.90126L81.4896 8.45095C80.803 7.94608 80.0312 7.56877 79.211 7.33704L79.0925 7.48262Z" fill="white"/>
<path d="M80.8124 4.96021C80.2587 5.64427 79.5867 6.22339 78.8284 6.67001L78.9841 6.83253C79.8823 6.4675 80.7105 5.94973 81.432 5.30217L80.8124 4.96021Z" fill="white"/>
<path d="M79.0925 5.41382C79.0925 5.41382 80.5078 6.1316 80.9953 6.83245L81.4896 6.40246C80.8036 5.89588 80.0316 5.51737 79.211 5.28516L79.0925 5.41382Z" fill="white"/>
<path d="M67.6893 9.72058H66.7853V10.2386H67.6893V9.72058Z" fill="white"/>
<path d="M38.1418 5.4646H37.3427V8.87067H38.1418V5.4646Z" fill="white"/>
<path d="M44.8998 5.4646H44.1008V8.87067H44.8998V5.4646Z" fill="white"/>
<path d="M44.2463 6.94092H38.0097V7.36075H44.2463V6.94092Z" fill="white"/>
<path d="M44.2463 8.4679H38.0097V8.8708H44.2463V8.4679Z" fill="white"/>
<path d="M44.2463 5.4646H38.0097V5.86412H44.2463V5.4646Z" fill="white"/>
<path d="M41.5344 9.2262H40.7083V14.4132H41.5344V9.2262Z" fill="white"/>
<path d="M45.2214 10.5399H38.1892V10.9361H45.2214V10.5399Z" fill="white"/>
<path d="M44.788 12.2125H37.4544V12.6087H44.788V12.2125Z" fill="white"/>
<path d="M45.7292 14.1458H36.3472V14.5554H45.7292V14.1458Z" fill="white"/>
<path d="M38.416 9.26013C38.013 10.466 37.2799 11.5346 36.2999 12.3446L36.4319 12.4969C36.4319 12.4969 38.4634 11.4067 39.2184 9.48359L38.416 9.26013Z" fill="white"/>
</svg>
